<?xml version="1.0" standalone="no"?>
<!DOCTYPE svg PUBLIC "-//W3C//DTD SVG 20010904//EN"
 "http://www.w3.org/TR/2001/REC-SVG-20010904/DTD/svg10.dtd">
<svg version="1.0" xmlns="http://www.w3.org/2000/svg"
 width="1250.000000pt" height="1250.000000pt" viewBox="0 0 1250.000000 1250.000000"
 preserveAspectRatio="xMidYMid meet">
<metadata>
Created by potrace 1.11, written by Peter Selinger 2001-2013
</metadata>
<g transform="translate(0.000000,1250.000000) scale(0.100000,-0.100000)"
fill="#000000" stroke="none">
<path d="M1520 6210 l0 -4710 4715 0 4715 0 0 4710 0 4710 -4715 0 -4715 0 0
-4710z m3064 4525 c11 -8 27 -15 36 -15 9 0 24 -8 34 -19 9 -10 36 -26 59 -36
88 -36 288 -134 476 -234 253 -134 520 -267 694 -347 76 -34 204 -103 285
-152 81 -49 178 -106 216 -128 38 -21 83 -48 100 -58 70 -43 139 -76 158 -76
21 0 361 132 609 236 31 13 89 28 129 34 40 6 105 22 144 36 39 14 107 35 151
46 89 22 159 44 255 81 36 13 114 43 173 65 59 23 120 50 135 60 15 10 52 26
83 36 30 10 82 32 115 50 52 27 59 35 59 61 0 28 -3 30 -38 33 -38 3 -75 -11
-377 -148 -280 -127 -340 -150 -426 -165 -48 -8 -90 -13 -92 -10 -3 3 1 5 8 5
7 0 18 7 24 15 18 24 705 363 786 389 41 13 100 26 131 30 72 8 83 -4 99 -104
7 -41 18 -93 26 -115 16 -48 58 -250 159 -755 41 -206 90 -438 110 -514 20
-80 46 -224 60 -339 14 -110 30 -220 35 -246 5 -25 14 -83 20 -128 7 -45 20
-94 29 -110 11 -17 55 -48 117 -82 54 -30 154 -88 220 -128 67 -40 134 -77
149 -83 42 -16 156 -94 207 -141 25 -24 82 -66 127 -92 45 -27 111 -73 149
-104 37 -30 85 -64 107 -75 22 -11 63 -35 90 -53 114 -74 243 -145 273 -151
18 -4 32 -10 32 -15 0 -13 202 -110 224 -107 29 4 34 58 8 81 -17 16 -193 110
-502 269 -124 63 -250 148 -294 197 -18 20 -18 20 20 9 21 -5 104 -41 184 -80
80 -38 187 -87 238 -109 275 -118 409 -195 490 -283 l43 -47 -32 -44 c-18 -25
-36 -45 -39 -45 -4 0 -39 -42 -78 -92 -39 -51 -92 -120 -117 -153 -26 -33
-102 -123 -169 -200 -184 -211 -406 -479 -530 -642 -43 -56 -150 -178 -238
-270 -89 -92 -196 -207 -240 -255 l-78 -88 0 -57 c0 -32 7 -94 15 -138 9 -44
25 -145 36 -225 11 -80 25 -165 31 -190 6 -25 12 -115 14 -200 2 -184 19 -489
28 -510 3 -8 15 -91 26 -184 11 -92 26 -178 32 -190 6 -11 13 -41 14 -65 2
-24 13 -86 24 -137 18 -77 25 -93 43 -98 28 -8 57 25 57 66 0 30 -51 300 -96
508 -34 157 -44 252 -37 339 6 67 7 71 19 50 7 -13 27 -85 45 -159 17 -74 59
-241 92 -370 60 -234 61 -236 61 -383 1 -102 -3 -150 -11 -155 -16 -10 -451
-7 -1043 6 -751 17 -821 20 -985 36 -82 8 -188 16 -235 18 -104 4 -113 -1
-207 -111 -139 -161 -398 -433 -426 -448 -16 -8 -75 -58 -130 -110 -55 -52
-123 -112 -151 -134 -53 -40 -314 -308 -366 -375 -16 -21 -43 -52 -59 -69 -16
-16 -52 -61 -81 -99 -57 -77 -62 -109 -17 -114 38 -5 77 27 146 116 32 42 85
106 117 142 33 36 93 108 135 160 42 52 103 120 136 150 60 56 163 134 163
124 0 -11 -69 -109 -126 -179 -31 -38 -116 -149 -189 -245 -146 -192 -217
-275 -285 -336 -48 -43 -111 -84 -128 -84 -16 0 -82 68 -82 84 0 8 -20 36 -45
63 -81 91 -206 252 -439 568 -119 162 -306 400 -396 506 -31 36 -140 191 -242
345 -102 153 -197 289 -211 302 -23 21 -39 25 -169 33 -78 5 -192 13 -253 18
-60 6 -159 13 -220 17 -71 4 -127 13 -158 25 -27 11 -106 26 -175 34 -70 9
-152 22 -182 30 -30 8 -111 20 -180 25 -69 6 -168 14 -220 19 -52 5 -170 10
-261 11 -137 1 -168 -2 -178 -14 -18 -21 -4 -55 27 -68 15 -6 158 -14 317 -19
160 -4 331 -10 380 -13 103 -5 243 -42 225 -60 -8 -8 -157 -11 -483 -11 -430
0 -475 2 -506 18 -19 9 -42 17 -51 17 -9 0 -25 9 -35 20 -19 21 -18 33 18 170
8 30 27 114 42 185 15 72 49 209 76 305 91 334 159 612 200 810 16 80 51 213
78 295 27 83 75 232 106 331 l57 182 -19 43 c-11 24 -43 74 -71 110 -28 37
-80 112 -116 167 -35 55 -89 133 -119 174 -64 87 -117 178 -117 202 0 19 -28
71 -96 176 -23 36 -56 96 -73 133 -17 38 -47 92 -68 120 -20 28 -44 63 -53 77
-32 56 -132 202 -163 238 -18 20 -50 64 -72 96 -22 33 -58 79 -80 104 -33 36
-45 43 -63 38 -16 -6 -22 -15 -22 -37 0 -42 21 -79 115 -199 45 -58 92 -121
105 -140 13 -19 47 -64 76 -100 93 -116 180 -254 202 -318 l21 -63 -27 21
c-14 12 -74 81 -132 154 -58 73 -147 181 -199 241 -101 117 -198 244 -236 309
-34 58 -68 154 -61 172 3 8 32 26 63 41 32 14 141 66 243 116 102 49 266 125
365 168 293 126 354 153 603 275 130 64 296 138 367 164 155 57 312 117 340
130 11 5 46 19 77 30 83 31 102 50 126 127 11 37 42 138 68 223 26 85 59 198
73 250 24 85 50 148 97 234 9 16 36 82 60 148 24 66 55 141 69 166 15 26 35
76 45 112 10 36 23 79 29 95 25 71 80 254 90 295 5 25 22 88 36 140 31 114 30
154 -3 158 -28 4 -51 -13 -64 -48 -11 -28 -79 -284 -140 -525 -37 -147 -85
-269 -134 -340 -15 -22 -19 -9 -4 15 5 9 5 17 0 20 -6 4 5 68 25 153 19 81 50
229 70 329 61 312 107 450 173 521 29 31 39 32 66 12z"/>
<path d="M4765 10406 c-9 -14 -15 -37 -13 -52 3 -24 11 -31 65 -50 34 -13 109
-49 165 -81 56 -32 148 -78 203 -103 55 -26 127 -64 159 -86 128 -85 272 -173
285 -173 8 -1 35 -14 60 -30 118 -73 420 -230 486 -251 21 -7 46 -21 55 -31
14 -17 17 -17 57 2 82 40 84 38 -207 193 -96 51 -220 118 -275 148 -55 31
-156 87 -224 124 -69 38 -173 99 -231 135 -58 37 -126 75 -151 86 -24 11 -93
48 -154 83 -210 121 -249 133 -280 86z"/>
<path d="M4710 10236 c-5 -14 -23 -74 -40 -133 -17 -59 -42 -142 -55 -183 -14
-41 -49 -186 -79 -321 -54 -240 -90 -380 -120 -467 -12 -34 -56 -236 -56 -258
0 -10 36 -2 148 30 64 19 185 53 268 75 197 53 613 219 859 344 110 56 245
115 320 141 164 56 166 57 163 67 -2 5 -62 36 -133 68 -137 61 -188 90 -511
287 -110 67 -253 150 -318 184 -122 65 -401 190 -424 190 -7 0 -17 -11 -22
-24z"/>
<path d="M8405 10116 c-19 -14 -19 -16 8 -107 14 -52 31 -128 37 -169 6 -41
20 -111 30 -155 26 -106 47 -243 60 -390 7 -66 16 -136 21 -155 6 -19 16 -73
23 -120 34 -215 94 -499 109 -518 6 -8 11 -28 11 -45 1 -24 8 -35 34 -50 18
-10 40 -16 49 -13 21 8 16 59 -31 306 -63 330 -105 582 -127 750 -11 91 -29
203 -39 250 -10 47 -21 110 -25 140 -13 100 -45 244 -60 267 -18 27 -70 31
-100 9z"/>
<path d="M8089 9991 c-119 -48 -319 -138 -445 -199 -126 -61 -294 -138 -373
-172 -150 -64 -223 -99 -254 -122 -17 -13 -6 -23 125 -116 79 -57 173 -127
210 -155 67 -52 115 -82 353 -219 192 -111 308 -171 420 -218 126 -53 230
-109 369 -199 60 -39 113 -71 118 -71 4 0 6 10 3 23 -3 12 -20 85 -39 162 -18
77 -44 214 -56 305 -61 467 -73 546 -100 680 -16 80 -43 192 -59 250 -17 58
-31 113 -31 123 0 9 -6 17 -12 16 -7 0 -110 -40 -229 -88z"/>
<path d="M6736 9387 c-73 -22 -72 -54 1 -92 21 -10 45 -24 53 -31 17 -14 486
-267 513 -277 26 -10 304 -178 422 -256 66 -43 131 -98 192 -161 50 -52 90
-96 88 -98 -2 -2 -36 18 -77 45 -40 27 -98 64 -129 81 -31 18 -114 70 -184
117 -70 47 -171 106 -224 131 -175 83 -224 110 -432 236 -115 69 -255 146
-316 171 l-110 47 -59 -20 c-33 -12 -86 -23 -119 -26 -371 -35 -942 -150
-1150 -231 -89 -34 -367 -139 -435 -164 -19 -7 -93 -38 -165 -70 -71 -31 -155
-67 -185 -79 -108 -42 -117 -49 -139 -100 -27 -63 -20 -83 28 -77 54 7 144 44
612 248 161 70 470 181 578 208 42 11 123 22 181 25 l105 6 -125 -45 c-69 -25
-204 -72 -300 -104 -207 -70 -253 -89 -340 -141 -36 -22 -117 -57 -180 -79
-275 -95 -441 -163 -554 -228 -65 -37 -70 -43 -90 -99 -12 -32 -43 -93 -70
-134 -147 -231 -345 -595 -442 -812 -50 -114 -236 -679 -279 -852 -20 -78 -45
-171 -56 -208 l-20 -66 23 -48 c26 -53 51 -75 68 -58 17 17 58 139 105 314 25
91 63 230 84 310 50 184 173 544 217 635 32 67 108 183 140 215 8 9 2 -16 -16
-59 -16 -40 -39 -106 -51 -145 -12 -39 -41 -120 -64 -181 -53 -135 -100 -295
-116 -394 -6 -41 -31 -131 -56 -200 -54 -154 -129 -402 -149 -494 -22 -105
-18 -149 15 -210 17 -28 48 -101 70 -162 133 -370 148 -406 286 -691 71 -148
131 -250 264 -454 94 -144 171 -264 171 -266 0 -2 52 -72 115 -155 63 -83 115
-154 115 -158 0 -3 12 -20 28 -38 32 -37 68 -53 123 -53 73 0 60 26 -196 382
-60 84 -128 176 -150 203 -23 28 -84 116 -136 197 -139 218 -169 267 -200 329
-29 57 -93 249 -85 256 2 2 19 -22 37 -54 18 -32 58 -96 89 -143 32 -47 84
-130 116 -185 64 -108 185 -275 228 -315 15 -14 53 -65 83 -115 121 -195 276
-416 343 -488 65 -69 73 -75 121 -81 28 -4 160 -43 293 -87 132 -44 295 -93
361 -109 66 -17 145 -37 175 -45 220 -59 343 -77 720 -105 74 -6 169 -15 210
-20 41 -5 166 -10 276 -12 l202 -3 38 31 c52 42 53 75 4 85 -19 4 -224 17
-455 28 -572 28 -824 58 -965 117 -129 54 -131 55 -80 49 25 -3 108 -12 186
-20 77 -8 185 -22 240 -31 69 -12 154 -17 279 -16 118 0 247 -7 375 -21 122
-13 265 -21 382 -21 l187 -1 58 56 c32 31 72 64 88 72 53 26 436 286 510 346
38 31 106 83 150 115 91 66 581 553 695 691 41 50 104 124 141 165 36 41 71
85 78 97 21 42 7 143 -20 143 -19 0 -137 -126 -348 -370 -224 -259 -577 -618
-636 -647 -22 -11 -69 -37 -105 -57 -62 -36 -52 -24 201 231 159 160 281 292
303 328 21 33 95 119 165 190 207 212 273 285 341 377 l64 87 2 123 c1 68 7
168 12 223 27 254 34 431 29 725 -4 168 -11 323 -16 345 -9 36 -39 251 -61
430 -5 39 -20 125 -34 193 -14 67 -31 155 -37 195 -12 77 -35 114 -92 144 -59
30 -69 -3 -42 -147 168 -911 192 -1119 155 -1350 -15 -93 -28 -88 -29 11 -1
30 -5 80 -11 110 -5 30 -14 110 -20 179 -16 179 -37 310 -70 430 -17 62 -35
168 -45 260 -22 209 -58 417 -90 518 -25 79 -29 85 -78 117 -29 18 -72 54 -97
80 -96 101 -352 336 -490 451 -260 217 -265 220 -610 423 -96 57 -186 111
-200 121 -14 9 -100 57 -193 106 -92 49 -182 97 -200 106 -37 20 -56 21 -111
5z m-1774 -1613 c89 -29 147 -124 132 -220 -8 -59 -38 -102 -99 -142 -28 -19
-51 -37 -52 -40 -3 -9 379 -465 392 -468 9 -3 374 439 382 462 2 6 -21 27 -51
47 -69 46 -96 94 -96 172 0 70 17 112 63 152 62 54 92 58 406 56 321 -3 365
-10 418 -65 40 -42 54 -79 54 -144 0 -111 -72 -187 -191 -201 l-49 -6 -328
-398 c-180 -220 -328 -405 -328 -412 0 -7 157 -203 349 -435 l349 -421 46 -7
c145 -20 230 -125 202 -248 -15 -65 -53 -113 -110 -140 -44 -20 -60 -21 -396
-21 -377 0 -396 2 -457 53 -115 97 -73 304 70 341 20 5 51 13 69 18 l32 8
-212 262 c-117 144 -215 261 -218 260 -4 -1 -102 -119 -219 -262 l-213 -260
34 -8 c114 -29 182 -82 195 -154 19 -102 -21 -193 -103 -234 -47 -23 -54 -24
-369 -27 -202 -2 -343 1 -380 7 -114 21 -174 89 -174 196 0 120 68 190 203
210 l48 7 350 427 c192 234 347 431 345 437 -2 6 -153 189 -335 406 l-331 395
-49 6 c-140 17 -213 119 -187 262 10 51 67 110 124 129 72 23 97 24 377 19
193 -3 272 -8 307 -19z m3064 -569 c170 -26 366 -101 500 -193 146 -99 295
-308 366 -512 28 -82 48 -230 48 -362 l0 -118 -870 0 c-689 0 -870 -3 -870
-12 0 -29 67 -127 126 -184 72 -71 167 -123 289 -156 69 -19 106 -22 270 -22
213 0 288 11 596 85 219 52 291 59 345 31 143 -73 154 -262 21 -349 -163 -105
-724 -206 -1057 -189 -328 17 -564 112 -760 306 -198 195 -283 399 -283 680
-1 74 5 162 12 195 45 219 144 388 305 527 273 234 600 326 962 273z"/>
<path d="M7681 6789 c-121 -24 -236 -79 -321 -156 -48 -43 -150 -175 -150
-195 0 -4 284 -8 630 -8 445 0 630 3 630 11 0 34 -120 175 -202 239 -48 37
-172 89 -250 104 -83 17 -263 20 -337 5z"/>
<path d="M3630 8326 c-433 -185 -530 -226 -650 -274 -69 -27 -156 -60 -195
-72 -38 -13 -99 -37 -135 -55 -36 -18 -124 -56 -197 -84 -158 -62 -197 -86
-201 -124 -4 -35 22 -77 47 -77 10 0 44 15 75 34 31 19 87 46 124 62 37 15
137 60 222 99 85 40 216 91 290 115 74 23 160 55 190 70 30 16 89 42 130 59
276 109 458 193 466 215 4 11 14 14 30 10 19 -5 26 -1 34 21 5 14 10 40 10 56
0 23 -4 29 -22 29 -13 0 -111 -38 -218 -84z"/>
<path d="M3660 8151 c-123 -62 -276 -125 -590 -241 -268 -99 -453 -179 -595
-257 -66 -36 -126 -70 -132 -75 -10 -8 -2 -26 34 -77 25 -36 88 -127 139 -201
52 -74 148 -200 215 -280 66 -80 164 -206 217 -280 157 -221 235 -315 255
-307 7 2 30 47 51 98 22 52 70 164 107 249 78 177 227 656 260 835 38 200 68
313 119 446 51 136 55 149 43 148 -5 0 -60 -26 -123 -58z"/>
<path d="M9135 7800 c-8 -12 13 -509 26 -605 28 -216 94 -576 134 -733 34
-132 49 -216 62 -341 8 -91 19 -170 23 -174 4 -4 40 36 79 89 96 127 168 208
411 459 111 116 246 262 299 325 104 124 241 311 241 328 0 6 -39 32 -87 58
-49 26 -140 77 -203 115 -63 37 -204 108 -314 158 -109 50 -239 114 -290 143
-246 138 -370 196 -381 178z"/>
<path d="M10467 7099 c-9 -5 -26 -27 -36 -47 -10 -20 -57 -80 -103 -132 -45
-53 -112 -131 -147 -175 -36 -44 -137 -154 -226 -245 -219 -224 -545 -604
-545 -635 0 -7 -9 -17 -20 -20 -16 -5 -20 -15 -20 -48 1 -104 33 -89 181 85
233 272 601 681 646 716 19 15 53 52 75 82 23 30 81 98 129 150 171 186 182
208 128 254 -34 29 -37 30 -62 15z"/>
<path d="M3242 5741 c-6 -4 -36 -101 -67 -216 -31 -116 -64 -237 -74 -270 -11
-33 -38 -129 -61 -214 -23 -85 -70 -241 -106 -347 -35 -107 -64 -200 -64 -208
0 -7 -22 -89 -50 -182 -50 -169 -61 -243 -37 -262 6 -5 26 -13 44 -16 41 -9
58 16 68 99 4 33 18 94 31 135 13 41 41 149 63 240 22 91 63 225 91 299 28 74
58 166 66 203 7 38 18 77 24 87 5 10 21 63 34 117 14 55 41 160 61 234 19 74
34 147 33 162 -2 14 5 35 15 45 16 18 16 21 -8 53 -30 40 -47 51 -63 41z"/>
<path d="M3346 5528 c-3 -13 -17 -81 -31 -153 -16 -78 -71 -264 -136 -462 -60
-183 -127 -401 -149 -485 -48 -190 -84 -388 -72 -400 18 -18 217 -28 742 -39
560 -11 681 -12 689 -3 3 3 -5 24 -18 47 -13 23 -69 130 -125 237 -57 108
-111 209 -122 225 -61 95 -335 480 -380 535 -30 36 -87 104 -126 152 -40 47
-98 126 -128 175 -108 176 -120 193 -130 193 -5 0 -12 -10 -14 -22z"/>
<path d="M9065 5033 c-38 -36 -132 -117 -207 -180 -125 -104 -189 -170 -461
-472 -43 -47 -124 -147 -179 -221 -56 -74 -164 -199 -241 -276 l-138 -142 248
-5 c168 -3 325 -14 488 -32 264 -29 581 -42 748 -30 127 8 118 -12 83 196 -13
79 -27 167 -31 194 -3 28 -30 151 -60 275 -30 124 -70 315 -89 425 -37 209
-66 327 -82 331 -5 2 -40 -26 -79 -63z"/>
<path d="M7716 3654 c-14 -15 -26 -37 -26 -50 0 -27 22 -30 245 -39 409 -15
642 -28 845 -45 247 -21 545 -37 599 -32 19 2 42 7 52 12 21 12 30 56 18 88
-9 23 -11 24 -117 21 -160 -5 -534 10 -642 26 -180 26 -813 52 -870 35 -22 -6
-38 -6 -44 0 -16 16 -32 12 -60 -16z"/>
<path d="M4963 3613 c-32 -12 -15 -41 152 -263 56 -74 121 -164 145 -200 24
-36 64 -92 90 -125 64 -84 186 -261 260 -380 34 -55 76 -116 94 -136 17 -19
63 -82 101 -138 133 -196 171 -223 229 -162 l27 28 -52 59 c-28 33 -87 109
-131 169 -43 61 -110 148 -148 195 -38 47 -90 123 -116 170 -50 91 -115 190
-149 228 -11 13 -40 52 -65 88 -126 182 -240 334 -287 382 -29 29 -53 59 -53
67 0 22 -61 33 -97 18z"/>
<path d="M5166 3572 c-3 -5 27 -47 66 -93 112 -133 166 -207 338 -474 89 -137
206 -308 260 -380 102 -136 265 -325 280 -325 13 0 317 334 394 435 136 175
214 271 315 385 144 161 226 271 209 281 -7 4 -62 14 -123 24 -60 9 -159 27
-220 40 -60 14 -144 29 -185 34 -173 23 -557 42 -805 39 -206 -1 -284 2 -375
16 -63 9 -122 19 -132 22 -9 3 -19 1 -22 -4z"/>
</g>
</svg>
